<svg width="32" height="32" viewBox="0 0 32 32" fill="none" xmlns="http://www.w3.org/2000/svg">
<mask id="mask0_1_1126" style="mask-type:alpha" maskUnits="userSpaceOnUse" x="0" y="0" width="32" height="32">
<rect width="32" height="32" rx="16" fill="#09ADEA"/>
</mask>
<g mask="url(#mask0_1_1126)">
<path d="M0 21.3333L16.8889 18.6667L32 20.4444L32 26.6667L16 30.2222L0 26.6667V21.3333Z" fill="#F5A61D"/>
<path d="M6.75029e-07 5.33333C6.75029e-07 5.33333 8.88892 7.11126 15.1111 4.44452C21.3334 1.77777 32 5.33333 32 5.33333V10.6667C32 10.6667 22.2222 13.3334 16 10.6667C9.77778 7.99989 8 12.4446 6.75029e-07 10.6667C-8.43786e-07 8.889 6.75029e-07 5.33333 6.75029e-07 5.33333Z" fill="#8F3A98"/>
<path d="M2.79082e-07 10.6667C12.4444 7.11114 32 10.6667 32 10.6667V16C32 16 22.2222 18.6667 16 16C9.77778 13.3333 2.79082e-07 16 2.79082e-07 16C2.79082e-07 16 -3.48852e-07 12.4444 2.79082e-07 10.6667Z" fill="#E6359F"/>
<path d="M0 16C1.31007 12.9432 13.6411 9.47566 16.5983 13.6267C19.5556 17.7777 32 16 32 16C32 16 32 19.5555 32 21.3333C21.3057 18.9568 13.3333 18.6666 10.2488 20.5493C7.16425 22.4321 4.14401 21.3333 0 21.3333C0 21.3333 2.71267e-05 17.7777 0 16Z" fill="#F15E2B"/>
<path d="M5.41613e-07 26.6667C1.98612 20.3773 13.3334 29.3333 16.8889 26.6667C20.4445 24 32 26.6667 32 26.6667V32H5.41613e-07C5.41613e-07 32 2.71267e-05 28.4444 5.41613e-07 26.6667Z" fill="#FFDC5F"/>
<path d="M0 0H32V5.33333C32 5.33333 16.8889 4.44444 12.4444 6.22222C8 8 0 5.33333 0 5.33333V0Z" fill="#09ADEA"/>
<path fill-rule="evenodd" clip-rule="evenodd" d="M16 0H0V16V32H16H32V16V0H16ZM16 0C24.8366 0 32 7.16344 32 16C32 24.8366 24.8366 32 16 32C7.16344 32 0 24.8366 0 16C0 7.16344 7.16344 0 16 0Z" fill="#C4C4C4"/>
</g>
<mask id="mask1_1_1126" style="mask-type:alpha" maskUnits="userSpaceOnUse" x="0" y="0" width="32" height="32">
<path d="M2.5 16C2.5 8.54416 8.54416 2.5 16 2.5C23.4558 2.5 29.5 8.54416 29.5 16C29.5 23.4558 23.4558 29.5 16 29.5C8.54416 29.5 2.5 23.4558 2.5 16Z" stroke="#09ADEA" stroke-width="5"/>
</mask>
<g mask="url(#mask1_1_1126)">
<path d="M0 21.3333L16.8889 18.6667L32 20.4444L32 26.6667L16 30.2222L0 26.6667V21.3333Z" fill="#F5A61D"/>
<path d="M6.75029e-07 5.33333C6.75029e-07 5.33333 8.88892 7.11126 15.1111 4.44452C21.3334 1.77777 32 5.33333 32 5.33333V10.6667C32 10.6667 22.2222 13.3334 16 10.6667C9.77778 7.99989 8 12.4446 6.75029e-07 10.6667C-8.43786e-07 8.889 6.75029e-07 5.33333 6.75029e-07 5.33333Z" fill="#8F3A98"/>
<path d="M2.79082e-07 10.6667C12.4444 7.11114 32 10.6667 32 10.6667V16C32 16 22.2222 18.6667 16 16C9.77778 13.3333 2.79082e-07 16 2.79082e-07 16C2.79082e-07 16 -3.48852e-07 12.4444 2.79082e-07 10.6667Z" fill="#E6359F"/>
<path d="M0 16C1.31007 12.9432 13.6411 9.47566 16.5983 13.6267C19.5556 17.7777 32 16 32 16C32 16 32 19.5555 32 21.3333C21.3057 18.9568 13.3333 18.6666 10.2488 20.5493C7.16425 22.4321 4.14401 21.3333 0 21.3333C0 21.3333 2.71267e-05 17.7777 0 16Z" fill="#F15E2B"/>
<path d="M0 26.6667C1.98612 20.3773 13.3334 29.3333 16.8889 26.6667C20.4445 24 32 26.6667 32 26.6667V32H0C0 32 2.65851e-05 28.4444 0 26.6667Z" fill="#FFDC5F"/>
<path d="M0 0H32V5.33333C32 5.33333 16.8889 4.44444 12.4444 6.22222C8 8 0 5.33333 0 5.33333V0Z" fill="#09ADEA"/>
<path fill-rule="evenodd" clip-rule="evenodd" d="M16 0H0V16V32H16H32V16V0H16ZM16 0C24.8366 0 32 7.16344 32 16C32 24.8366 24.8366 32 16 32C7.16344 32 0 24.8366 0 16C0 7.16344 7.16344 0 16 0Z" fill="#C4C4C4"/>
</g>
</svg>
